<mxfile host="Electron" agent="Mozilla/5.0 (Windows NT 10.0; Win64; x64) AppleWebKit/537.36 (KHTML, like Gecko) draw.io/27.0.9 Chrome/134.0.6998.205 Electron/35.4.0 Safari/537.36" version="27.0.9">
  <diagram name="Page-1" id="5D2283ehkqkfbwSybast">
    <mxGraphModel dx="1188" dy="708" grid="1" gridSize="10" guides="1" tooltips="1" connect="1" arrows="1" fold="1" page="1" pageScale="1" pageWidth="850" pageHeight="1100" math="0" shadow="0">
      <root>
        <mxCell id="0" />
        <mxCell id="1" parent="0" />
        <mxCell id="4Jdkbdcl6v4ksWdkalp6-1" value="NEMA-17 Stepper Motor" style="whiteSpace=wrap;html=1;aspect=fixed;fillColor=#008a00;fontColor=#ffffff;strokeColor=#005700;points=[[0.4,1,0,0,0],[0.47,1,0,0,0],[0.55,1,0,0,0],[0.63,1,0,0,0]];" vertex="1" parent="1">
          <mxGeometry x="180" y="120" width="80" height="80" as="geometry" />
        </mxCell>
        <mxCell id="4Jdkbdcl6v4ksWdkalp6-2" value="A4988 Motor Driver" style="rounded=0;whiteSpace=wrap;html=1;fillColor=#a20025;fontColor=#ffffff;strokeColor=#6F0000;points=[[0.41,0,0,0,0],[0.47,0,0,0,0],[0.47,1,0,0,0],[0.53,0,0,0,0],[0.53,1,0,0,0],[0.59,0,0,0,0],[1,0.5,0,0,0]];" vertex="1" parent="1">
          <mxGeometry x="170" y="260" width="100" height="60" as="geometry" />
        </mxCell>
        <mxCell id="4Jdkbdcl6v4ksWdkalp6-9" style="edgeStyle=orthogonalEdgeStyle;rounded=0;orthogonalLoop=1;jettySize=auto;html=1;exitX=0.41;exitY=0;exitDx=0;exitDy=0;exitPerimeter=0;entryX=0.4;entryY=1;entryDx=0;entryDy=0;entryPerimeter=0;" edge="1" parent="1" source="4Jdkbdcl6v4ksWdkalp6-2" target="4Jdkbdcl6v4ksWdkalp6-1">
          <mxGeometry relative="1" as="geometry" />
        </mxCell>
        <mxCell id="4Jdkbdcl6v4ksWdkalp6-10" style="edgeStyle=orthogonalEdgeStyle;rounded=0;orthogonalLoop=1;jettySize=auto;html=1;exitX=0.47;exitY=0;exitDx=0;exitDy=0;exitPerimeter=0;entryX=0.47;entryY=1;entryDx=0;entryDy=0;entryPerimeter=0;" edge="1" parent="1" source="4Jdkbdcl6v4ksWdkalp6-2" target="4Jdkbdcl6v4ksWdkalp6-1">
          <mxGeometry relative="1" as="geometry" />
        </mxCell>
        <mxCell id="4Jdkbdcl6v4ksWdkalp6-11" style="edgeStyle=orthogonalEdgeStyle;rounded=0;orthogonalLoop=1;jettySize=auto;html=1;exitX=0.53;exitY=0;exitDx=0;exitDy=0;exitPerimeter=0;entryX=0.55;entryY=1;entryDx=0;entryDy=0;entryPerimeter=0;" edge="1" parent="1" source="4Jdkbdcl6v4ksWdkalp6-2" target="4Jdkbdcl6v4ksWdkalp6-1">
          <mxGeometry relative="1" as="geometry" />
        </mxCell>
        <mxCell id="4Jdkbdcl6v4ksWdkalp6-12" style="edgeStyle=orthogonalEdgeStyle;rounded=0;orthogonalLoop=1;jettySize=auto;html=1;exitX=0.59;exitY=0;exitDx=0;exitDy=0;exitPerimeter=0;entryX=0.63;entryY=1;entryDx=0;entryDy=0;entryPerimeter=0;" edge="1" parent="1" source="4Jdkbdcl6v4ksWdkalp6-2" target="4Jdkbdcl6v4ksWdkalp6-1">
          <mxGeometry relative="1" as="geometry" />
        </mxCell>
        <mxCell id="4Jdkbdcl6v4ksWdkalp6-13" value="ESP32-Wroom-32e" style="rounded=1;whiteSpace=wrap;html=1;fillColor=#d80073;fontColor=#ffffff;strokeColor=#A50040;" vertex="1" parent="1">
          <mxGeometry x="160" y="380" width="120" height="60" as="geometry" />
        </mxCell>
        <mxCell id="4Jdkbdcl6v4ksWdkalp6-20" value="" style="endArrow=classic;html=1;rounded=0;exitX=0.75;exitY=0;exitDx=0;exitDy=0;entryX=0.53;entryY=1;entryDx=0;entryDy=0;entryPerimeter=0;" edge="1" parent="1" source="4Jdkbdcl6v4ksWdkalp6-13" target="4Jdkbdcl6v4ksWdkalp6-2">
          <mxGeometry relative="1" as="geometry">
            <mxPoint x="310" y="380" as="sourcePoint" />
            <mxPoint x="313" y="320" as="targetPoint" />
          </mxGeometry>
        </mxCell>
        <mxCell id="4Jdkbdcl6v4ksWdkalp6-21" value="5v" style="edgeLabel;resizable=0;html=1;;align=center;verticalAlign=middle;" connectable="0" vertex="1" parent="4Jdkbdcl6v4ksWdkalp6-20">
          <mxGeometry relative="1" as="geometry" />
        </mxCell>
        <mxCell id="4Jdkbdcl6v4ksWdkalp6-25" value="" style="endArrow=classic;html=1;rounded=0;exitX=0.25;exitY=0;exitDx=0;exitDy=0;entryX=0.47;entryY=1;entryDx=0;entryDy=0;entryPerimeter=0;" edge="1" parent="1" source="4Jdkbdcl6v4ksWdkalp6-13" target="4Jdkbdcl6v4ksWdkalp6-2">
          <mxGeometry relative="1" as="geometry">
            <mxPoint x="190" y="400" as="sourcePoint" />
            <mxPoint x="350" y="400" as="targetPoint" />
          </mxGeometry>
        </mxCell>
        <mxCell id="4Jdkbdcl6v4ksWdkalp6-26" value="Dir&lt;div&gt;Step&lt;/div&gt;&lt;div&gt;Enable&lt;/div&gt;" style="edgeLabel;resizable=0;html=1;;align=center;verticalAlign=middle;" connectable="0" vertex="1" parent="4Jdkbdcl6v4ksWdkalp6-25">
          <mxGeometry relative="1" as="geometry" />
        </mxCell>
        <mxCell id="4Jdkbdcl6v4ksWdkalp6-30" value="" style="endArrow=none;dashed=1;html=1;dashPattern=1 3;strokeWidth=2;rounded=0;exitX=0.5;exitY=1;exitDx=0;exitDy=0;" edge="1" parent="1" source="4Jdkbdcl6v4ksWdkalp6-13">
          <mxGeometry width="50" height="50" relative="1" as="geometry">
            <mxPoint x="250" y="430" as="sourcePoint" />
            <mxPoint x="220" y="470" as="targetPoint" />
          </mxGeometry>
        </mxCell>
        <mxCell id="4Jdkbdcl6v4ksWdkalp6-31" value="Software, cloud integration" style="rounded=0;whiteSpace=wrap;html=1;" vertex="1" parent="1">
          <mxGeometry x="160" y="460" width="120" height="60" as="geometry" />
        </mxCell>
        <mxCell id="4Jdkbdcl6v4ksWdkalp6-32" value="12V Wall socket" style="rounded=0;whiteSpace=wrap;html=1;fillColor=#1ba1e2;fontColor=#ffffff;strokeColor=#006EAF;" vertex="1" parent="1">
          <mxGeometry x="450" y="270" width="120" height="60" as="geometry" />
        </mxCell>
        <mxCell id="4Jdkbdcl6v4ksWdkalp6-38" value="" style="endArrow=classic;html=1;rounded=0;entryX=1;entryY=0.5;entryDx=0;entryDy=0;entryPerimeter=0;exitX=0;exitY=0.25;exitDx=0;exitDy=0;" edge="1" parent="1" source="4Jdkbdcl6v4ksWdkalp6-32" target="4Jdkbdcl6v4ksWdkalp6-2">
          <mxGeometry width="50" height="50" relative="1" as="geometry">
            <mxPoint x="250" y="430" as="sourcePoint" />
            <mxPoint x="300" y="380" as="targetPoint" />
          </mxGeometry>
        </mxCell>
        <mxCell id="4Jdkbdcl6v4ksWdkalp6-39" value="12v to 5v&lt;div&gt;MP1584 buck converter&amp;nbsp;&lt;/div&gt;" style="rounded=0;whiteSpace=wrap;html=1;fillColor=#1ba1e2;fontColor=#ffffff;strokeColor=#006EAF;" vertex="1" parent="1">
          <mxGeometry x="340" y="385" width="90" height="50" as="geometry" />
        </mxCell>
        <mxCell id="4Jdkbdcl6v4ksWdkalp6-40" value="" style="endArrow=classic;html=1;rounded=0;entryX=1;entryY=0.5;entryDx=0;entryDy=0;exitX=0.5;exitY=1;exitDx=0;exitDy=0;" edge="1" parent="1" source="4Jdkbdcl6v4ksWdkalp6-32" target="4Jdkbdcl6v4ksWdkalp6-39">
          <mxGeometry width="50" height="50" relative="1" as="geometry">
            <mxPoint x="250" y="430" as="sourcePoint" />
            <mxPoint x="300" y="380" as="targetPoint" />
          </mxGeometry>
        </mxCell>
        <mxCell id="4Jdkbdcl6v4ksWdkalp6-41" value="" style="endArrow=classic;html=1;rounded=0;entryX=1;entryY=0.5;entryDx=0;entryDy=0;exitX=0;exitY=0.5;exitDx=0;exitDy=0;" edge="1" parent="1" source="4Jdkbdcl6v4ksWdkalp6-39" target="4Jdkbdcl6v4ksWdkalp6-13">
          <mxGeometry width="50" height="50" relative="1" as="geometry">
            <mxPoint x="250" y="430" as="sourcePoint" />
            <mxPoint x="300" y="380" as="targetPoint" />
          </mxGeometry>
        </mxCell>
      </root>
    </mxGraphModel>
  </diagram>
</mxfile>
